<?xml version="1.0" ?><svg viewBox="0 0 24 24" xmlns="http://www.w3.org/2000/svg"><defs><style>.cls-1{fill:#8d6de8;}.cls-2{fill:#a78eef;}.cls-3{fill:#6c2e7c;}</style></defs><g id="Icons"><rect class="cls-1" height="22" rx="3" width="22" x="1" y="1"/><rect class="cls-2" height="17" rx="3" width="22" x="1" y="1"/></g><g data-name="Layer 4" id="Layer_4"><path class="cls-3" d="M20,0H4A4,4,0,0,0,0,4V20a4,4,0,0,0,4,4H20a4,4,0,0,0,4-4V4A4,4,0,0,0,20,0Zm2,20a2,2,0,0,1-2,2H4a2,2,0,0,1-2-2V4A2,2,0,0,1,4,2H20a2,2,0,0,1,2,2Z"/><path class="cls-3" d="M5,15a1,1,0,0,0,0,2,2,2,0,0,1,2,2,1,1,0,0,0,2,0A4,4,0,0,0,5,15Z"/><path class="cls-3" d="M5,11a1,1,0,0,0,0,2,6.006,6.006,0,0,1,6,6,1,1,0,0,0,2,0A8.009,8.009,0,0,0,5,11Z"/><path class="cls-3" d="M5,7A1,1,0,0,0,5,9,10.011,10.011,0,0,1,15,19a1,1,0,0,0,2,0A12.013,12.013,0,0,0,5,7Z"/></g></svg>
